<?xml version="1.0" encoding="UTF-8" standalone="no"?>
<svg
   height="24"
   viewBox="0 -960 960 960"
   width="24"
   fill="#1f1f1f"
   version="1.1"
   id="svg1"
   sodipodi:docname="dark_mode.svg"
   inkscape:version="1.3.2 (091e20e, 2023-11-25, custom)"
   xmlns:inkscape="http://www.inkscape.org/namespaces/inkscape"
   xmlns:sodipodi="http://sodipodi.sourceforge.net/DTD/sodipodi-0.dtd"
   xmlns="http://www.w3.org/2000/svg"
   xmlns:svg="http://www.w3.org/2000/svg">
  <defs
     id="defs1" />
  <sodipodi:namedview
     id="namedview1"
     pagecolor="#ffffff"
     bordercolor="#000000"
     borderopacity="0.25"
     inkscape:showpageshadow="2"
     inkscape:pageopacity="0.0"
     inkscape:pagecheckerboard="0"
     inkscape:deskcolor="#d1d1d1"
     inkscape:zoom="18.193268"
     inkscape:cx="20.859364"
     inkscape:cy="26.02611"
     inkscape:window-width="2560"
     inkscape:window-height="1494"
     inkscape:window-x="-11"
     inkscape:window-y="-11"
     inkscape:window-maximized="1"
     inkscape:current-layer="svg1" />
  <path
     d="m 480.00001,-119.99997 q -150,0 -255.00001,-105.00001 -105,-105 -105,-255.00001 0,-150 105,-255.00001 105.00001,-105 255.00001,-105 14,0 27.50002,1 13.5,1 26.49999,3 -41.00001,29 -65.5,75.5 -24.50001,46.5 -24.50001,100.5 0,90.00001 63,153.00001 63.00001,63.00001 153.00001,63.00001 55,0 101,-24.50001 45.99999,-24.5 75,-65.5 2.00002,13 3,26.5 0.99998,13.5 0.99998,27.5 0,150.00001 -104.99998,255.00001 -105,105.00001 -255.00001,105.00001 z m 0,-80.00001 q 87.99999,0 158.00002,-48.5 69.99999,-48.5 102.00002,-126.5 -20.00006,5 -40.00005,8 -19.99997,3 -39.99998,3 -123.00001,0 -209.50001,-86.5 -86.5,-86.50001 -86.5,-209.50002 0,-19.99999 3,-39.99999 Q 370,-720 375.00001,-740 297,-707.99999 248.5,-637.99999 q -48.5,70 -48.5,158 0,116.00001 82.00001,198.00001 82,82 198,82 z m -10,-270 z"
     id="path1"
     style="stroke-width:1" />
</svg>
