<?xml version="1.0" encoding="UTF-8" standalone="no"?>
<svg
   height="24"
   viewBox="0 -960 960 960"
   width="24"
   fill="#1f1f1f"
   version="1.1"
   id="svg1"
   sodipodi:docname="light_mode.svg"
   inkscape:version="1.3.2 (091e20e, 2023-11-25, custom)"
   xmlns:inkscape="http://www.inkscape.org/namespaces/inkscape"
   xmlns:sodipodi="http://sodipodi.sourceforge.net/DTD/sodipodi-0.dtd"
   xmlns="http://www.w3.org/2000/svg"
   xmlns:svg="http://www.w3.org/2000/svg">
  <defs
     id="defs1" />
  <sodipodi:namedview
     id="namedview1"
     pagecolor="#ffffff"
     bordercolor="#000000"
     borderopacity="0.25"
     inkscape:showpageshadow="2"
     inkscape:pageopacity="0.0"
     inkscape:pagecheckerboard="0"
     inkscape:deskcolor="#d1d1d1"
     inkscape:zoom="18.193268"
     inkscape:cx="19.320333"
     inkscape:cy="24.047356"
     inkscape:window-width="2560"
     inkscape:window-height="1494"
     inkscape:window-x="-11"
     inkscape:window-y="-11"
     inkscape:window-maximized="1"
     inkscape:current-layer="svg1" />
  <path
     d="M 565.00001,-395 Q 600,-430 600,-480 q 0,-50 -34.99999,-85 -34.99999,-35 -85.00001,-35 -50,0 -85,35 -35,35 -35,85 0,50 35,85 35,35 85,35 50.00002,0 85.00001,-35 z M 338.5,-338.5 Q 280,-397 280,-480 280,-563 338.5,-621.5 397,-680 480,-680 q 83.00002,0 141.49998,58.5 58.50001,58.5 58.50001,141.5 0,83 -58.50001,141.5 Q 563.00002,-280 480,-280 q -83,0 -141.5,-58.5 z M 200,-440 H 40 v -80 h 160 z m 720,0 H 760.00001 v -80 H 920 Z M 440,-760 v -160 h 80.00002 v 160 z m 0,720 v -160 h 80.00002 v 160 z m -184,-610 -101,-97 57,-59 96,100 z m 491.99997,496 -96.99995,-101 52.99996,-55 101.00001,97 z m -97.99999,-550 97.00001,-101 59.00004,57 -100.00001,96 z M 154,-212 l 101,-97 55,53 -97,101 z m 326,-268 z"
     id="path1"
     style="stroke-width:1" />
</svg>
